<svg width="260" height="100" viewBox="0 0 260 100" fill="none" xmlns="http://www.w3.org/2000/svg">
<g clip-path="url(#clip0_605_456)">
<path d="M96.4622 55.7705H107.653V59.4498H102.329V85.3018H96.4622V55.7705Z" fill="white"/>
<path d="M114.288 74.2155L115.293 59.4498H115.63L116.635 74.2155H114.288ZM107.79 85.3018H113.535L114.078 77.4591H116.845L117.391 85.3018H123.133L120.073 55.7705H110.85L107.79 85.3018Z" fill="white"/>
<path d="M131.535 74.9659V80.5332C131.535 81.2836 132.113 81.5015 132.45 81.5015C133.003 81.5015 133.388 81.0416 133.388 80.5332V73.6587C133.388 72.7389 133.219 71.7223 131.03 71.7223H128.649V68.4787H131.127C132.786 68.4787 133.388 68.0913 133.388 66.2759V60.4181C133.388 59.9097 133.003 59.4498 132.45 59.4498C132.113 59.4498 131.535 59.6435 131.535 60.4181V65.2351H125.666V61.0474C125.666 58.9899 125.906 55.7705 130.02 55.7705H134.879C138.993 55.7705 139.257 58.9899 139.257 61.0474V65.7676C139.257 68.987 137.02 69.8584 135.264 69.7858V70.0762C139.209 69.9794 139.257 73.0294 139.257 74.0702V80.0249C139.257 82.1066 138.993 85.3018 134.879 85.3018H130.02C125.906 85.3018 125.666 82.1066 125.666 80.0249V74.9659H131.535Z" fill="white"/>
<path d="M143.106 55.7705H156.698V85.3018H150.828V59.4498H148.976V85.3018H143.106V55.7705Z" fill="white"/>
<path d="M166.416 72.0127V59.4498H167.186C167.812 59.4498 168.269 59.9823 168.269 60.9264V70.5362C168.269 71.4802 167.812 72.0127 167.186 72.0127H166.416ZM160.547 85.3018H166.416V75.2563H169.784C173.874 75.2563 174.138 72.0611 174.138 69.9794V61.0474C174.138 58.9899 173.874 55.7705 169.784 55.7705H160.547V85.3018Z" fill="white"/>
<path d="M185.709 80.5332C185.709 81.0416 185.324 81.5015 184.771 81.5015C184.434 81.5015 183.857 81.2836 183.857 80.5332V60.4181C183.857 59.6435 184.434 59.4498 184.771 59.4498C185.324 59.4498 185.709 59.9097 185.709 60.4181V80.5332ZM177.987 80.0249C177.987 82.1066 178.252 85.3018 182.341 85.3018H187.225C191.314 85.3018 191.579 82.1066 191.579 80.0249V61.0474C191.579 58.9899 191.314 55.7705 187.225 55.7705H182.341C178.252 55.7705 177.987 58.9899 177.987 61.0474V80.0249Z" fill="white"/>
<path d="M210.679 55.7705H218.329V85.3018H212.459V66.7842H212.243L209.212 85.3018H204.521L201.514 66.7842H201.297V85.3018H195.428V55.7705H203.053L206.878 76.5392L210.679 55.7705Z" fill="white"/>
<path d="M88.8558 15.395C87.0588 7.47964 82.5556 1.04086 81.935 0C80.9535 1.47656 77.3619 7.16496 75.5361 13.4585C73.5419 20.5025 73.2484 26.7476 73.9364 32.8717C74.6196 39.02 77.2008 45.3378 77.2008 45.3378C78.572 48.6298 80.6263 52.1881 81.9638 53.9309C83.9244 51.3651 88.43 43.716 89.8349 33.7431C90.6167 28.1758 90.6503 23.3104 88.8558 15.395ZM81.935 51.946C81.0521 50.2758 79.6809 47.1049 79.551 42.1668C79.5173 37.4224 81.4105 33.3316 81.9638 32.4844C82.457 33.3316 84.0879 36.8899 84.2828 41.7553C84.4151 46.4997 82.8467 50.2516 81.935 51.946ZM88.3338 28.8293C88.2664 31.8551 87.908 35.0503 87.4509 36.9625C87.6145 33.6705 87.2224 29.0472 86.4719 25.4163C85.7213 21.8096 83.5972 15.7581 81.9013 12.9744C80.3352 15.6371 78.406 20.8655 77.3956 25.3921C76.3805 29.9186 76.3516 35.4134 76.3516 37.0594C76.0822 35.6796 75.4086 30.7174 75.5987 25.7552C75.7574 21.6643 76.71 17.4283 77.232 15.4918C79.2239 9.02884 81.4779 4.88961 81.9013 4.23604C82.3246 4.88961 85.1632 9.99706 86.6354 15.3466C88.1004 20.6961 88.3963 25.8278 88.3338 28.8293Z" fill="white"/>
<path d="M84.9828 55.7705H71.3216V64.9929C71.3336 64.9929 71.3432 64.9688 71.3552 64.9688C74.5739 61.7252 79.794 61.7252 83.0151 64.9688C86.2337 68.1882 86.2337 73.4408 83.0151 76.6844C83.0006 76.7087 82.9862 76.7087 82.9718 76.7329C82.9549 76.7329 82.9381 76.7571 82.9236 76.7813C79.7122 79.9765 75.5169 81.5741 71.3216 81.5741C67.107 81.5741 62.8924 79.9765 59.6786 76.7329C54.011 71.0444 53.3399 62.2093 57.6603 55.7705C58.2424 54.8991 58.9136 54.076 59.6786 53.3015C62.8924 50.0579 67.107 48.4603 71.3216 48.4603V26.2876C55.1272 26.2876 42 39.4798 42 55.7705C42 72.0611 55.1272 85.2776 71.3216 85.2776C79.7651 85.2776 87.3716 81.6709 92.7216 75.9341V55.7705H84.9828Z" fill="white"/>
</g>
<defs>
<clipPath id="clip0_605_456">
<rect width="260" height="100" fill="white"/>
</clipPath>
</defs>
</svg>
