<svg width="260" height="100" viewBox="0 0 260 100" fill="none" xmlns="http://www.w3.org/2000/svg">
<path fill-rule="evenodd" clip-rule="evenodd" d="M31 33.5828H83.453V86.059H31V33.5828ZM72.4088 40.5721C72.8636 39.6107 73.7764 38.8106 74.9818 38.8106C76.5626 38.731 77.9739 39.9422 78.0948 41.7441C78.0948 41.9956 77.9703 42.8706 77.8844 43.0776L71.7848 53.0011C71.1646 54.0485 71.2779 54.8454 71.5324 55.7241L80.752 79.3259H42.9269C39.562 79.3259 36.9394 76.6069 36.9394 73.2131L36.8132 41.9968C36.9405 37.8517 42.717 37.8495 42.9269 41.8705V71.2832C42.9269 72.2096 43.7512 73.2131 44.7498 73.2131H72.4929L65.3485 56.1382C65.1036 55.5938 65.012 55.0031 65.012 54.3345C65.012 53.5864 65.3463 52.4562 65.8043 51.4501L72.4088 40.5721ZM57.0404 41.8705C57.0404 39.86 58.5224 38.8346 60.0061 38.8246C61.4898 38.8147 62.9788 39.8202 62.9788 41.8705V63.0861C62.9788 67.938 59.37 71.1639 54.93 71.1639C50.6077 71.1639 46.9864 67.938 46.9864 63.0861V41.8705C46.9864 37.8495 52.9318 37.8495 52.9318 41.8705V62.9176C52.9318 65.7224 57.0404 65.9739 57.0404 62.9176V41.8705Z" fill="white"/>
<path d="M93.7293 39.7495V53.6334C93.7293 57.1036 93.3762 59.0329 90.5519 59.0329C90.024 59.0329 89.6709 59.0329 89.143 58.8419V64.8176C90.1989 65.206 90.905 65.206 91.7892 65.206C99.7277 65.206 100.081 59.2271 100.081 55.7538V45.7284H104.667V64.8176H111.015V39.7495H93.7293Z" fill="white"/>
<path d="M113.134 39.7495L121.778 57.8773L118.604 64.8176H125.484L135.715 39.7495H128.836L125.13 50.3543L120.719 39.7495H113.134Z" fill="white"/>
<path d="M137.655 64.8176H144.007V54.0187L150.533 64.8176H158.647L149.652 51.8983L158.472 39.7495H150.886L144.007 50.3543V39.7495H137.655V64.8176Z" fill="white"/>
<path d="M169.057 65.5911C177.523 65.5911 181.403 59.0328 181.403 52.2834C181.403 45.7283 177.523 39.1699 169.057 39.1699C160.765 39.1699 156.885 45.7283 156.885 52.2834C156.885 59.0328 160.765 65.5911 169.057 65.5911ZM169.057 59.6122C166.232 59.6122 163.411 57.1035 163.411 52.2834C163.411 47.4633 166.232 45.1488 169.057 45.1488C172.056 45.1488 174.877 47.4633 174.877 52.2834C174.877 57.1035 172.056 59.6122 169.057 59.6122Z" fill="white"/>
<path d="M184.581 39.7494V64.8175H190.754L199.574 49.7779V64.8175H205.75V39.7494H199.574L190.754 54.7921V39.7494H184.581ZM195.34 38.3995C197.986 38.3995 200.633 37.4348 201.87 34.5409L198.165 33C197.633 34.9293 196.046 35.1203 195.34 35.1203C194.812 35.1203 193.047 34.9293 192.694 33L188.992 34.5409C190.048 37.4348 192.872 38.3995 195.34 38.3995Z" fill="white"/>
<path d="M212.455 39.7495V53.6334C212.455 57.1036 212.098 59.0329 209.277 59.0329C208.749 59.0329 208.396 59.0329 207.865 58.8419V64.8176C208.924 65.206 209.63 65.206 210.511 65.206C218.45 65.206 218.803 59.2271 218.803 55.7538V45.7284H223.389V64.8176H229.741V39.7495H212.455Z" fill="white"/>
<path d="M89.1939 78.8861H90.0876V74.2347H95.3068V78.8861H96.2005V69.7681H95.3068V73.5025H90.0876V69.7681H89.1939V78.8861Z" fill="white"/>
<path d="M98.4746 78.8861H103.369V78.1538H99.3683V74.1456H103.21V73.4134H99.3683V70.5035H103.369V69.7681H98.4746V78.8861Z" fill="white"/>
<path d="M109.26 78.8862H110.144V77.6318H110.516C113.461 77.6318 114.679 75.8872 114.679 74.0598C114.679 71.9204 113.099 70.5036 110.516 70.5036H110.144V69.4084H109.26V70.5036H108.9C106.302 70.5036 104.724 71.9204 104.724 74.0598C104.724 75.8872 105.942 77.6318 108.9 77.6318H109.26V78.8862ZM110.144 71.2359C113.099 71.2741 113.747 72.6558 113.747 74.0598C113.747 76.2501 112.294 76.82 110.144 76.8964V71.2359ZM109.26 76.8964C107.11 76.82 105.656 76.2501 105.656 74.0598C105.656 72.6558 106.302 71.2741 109.26 71.2359V76.8964Z" fill="white"/>
<path d="M117.908 78.8861H118.766V70.5035H121.19V69.7681H115.487V70.5035H117.908V78.8861Z" fill="white"/>
<path d="M122.246 78.8861H123.251L125.674 74.881H126.444V78.8861H127.341V69.7681H125.239C122.481 69.7681 122.084 71.5987 122.084 72.4073C122.084 73.9482 123.289 74.881 124.707 74.8301L122.246 78.8861ZM126.444 74.1456H125.153C124.421 74.1456 122.968 74.0596 122.968 72.3182C122.968 70.6277 124.507 70.5035 125.239 70.5035H126.444V74.1456Z" fill="white"/>
<path d="M129.628 78.8861H130.521V74.2347H135.741V78.8861H136.634V69.7681H135.741V73.5025H130.521V69.7681H129.628V78.8861Z" fill="white"/>
<path d="M137.938 78.8861H138.835L140.088 75.9253H143.927L145.184 78.8861H146.077L141.99 69.5325L137.938 78.8861ZM140.413 75.2057L141.99 71.4745L143.606 75.2057H140.413Z" fill="white"/>
<path d="M147.111 78.8861H148.116L150.54 74.881H151.309V78.8861H152.203V69.7681H150.104C147.346 69.7681 146.949 71.5987 146.949 72.4073C146.949 73.9482 148.154 74.881 149.57 74.8301L147.111 78.8861ZM151.309 74.1456H150.018C149.283 74.1456 147.83 74.0596 147.83 72.3182C147.83 70.6277 149.372 70.5035 150.104 70.5035H151.309V74.1456Z" fill="white"/>
<path d="M157.511 78.8861H158.405V74.4703L162.492 78.8861H163.659L159.248 74.1838L163.586 69.7681H162.492L158.405 74.0214V69.7681H157.511V78.8861Z" fill="white"/>
<path d="M169.425 79.1726C172.135 79.1726 174.358 77.221 174.358 74.3462C174.358 71.4745 172.135 69.5325 169.425 69.5325C166.754 69.5325 164.531 71.4745 164.531 74.3462C164.531 77.221 166.754 79.1726 169.425 79.1726ZM169.425 78.4021C167.202 78.4021 165.463 76.7339 165.463 74.3462C165.463 71.9584 167.202 70.2552 169.425 70.2552C171.652 70.2552 173.427 71.9584 173.427 74.3462C173.427 76.7339 171.652 78.4021 169.425 78.4021Z" fill="white"/>
<path d="M175.589 78.8862H176.448L177.291 72.1559L180.646 79.2969L183.964 72.1559L184.861 78.8862H185.665L184.412 69.4084L180.646 77.5554L176.842 69.4084L175.589 78.8862Z" fill="white"/>
<path d="M187.345 69.7681V78.8861H188.238V70.5035H193.457V78.8861H194.351V69.7681H187.345Z" fill="white"/>
<path d="M195.658 78.8861H196.552L197.805 75.9253H201.647L202.9 78.8861H203.794L199.707 69.5325L195.658 78.8861ZM198.13 75.2057L199.707 71.4745L201.323 75.2057H198.13Z" fill="white"/>
<path d="M205.063 78.8861H205.957V74.2347H211.176V78.8861H212.073V69.7681H211.176V73.5025H205.957V69.7681H205.063V78.8861Z" fill="white"/>
<path d="M214.344 69.7682V79.2969L220.584 71.672V78.8862H221.465V69.4084L215.241 76.9824V69.7682H214.344Z" fill="white"/>
<path d="M223.478 78.8861H224.483L226.907 74.881H227.677V78.8861H228.574V69.7681H226.474C223.714 69.7681 223.316 71.5987 223.316 72.4073C223.316 73.9482 224.522 74.881 225.94 74.8301L223.478 78.8861ZM227.677 74.1456H226.385C225.654 74.1456 224.2 74.0596 224.2 72.3182C224.2 70.6277 225.74 70.5035 226.474 70.5035H227.677V74.1456Z" fill="white"/>
</svg>
