<svg width="76" height="84" viewBox="0 0 76 84" fill="none" xmlns="http://www.w3.org/2000/svg">
<circle cx="36.5" cy="36.5" r="14.5" fill="white"/>
<path d="M36.5 82.6058C36.3497 82.4577 36.1765 82.2861 35.9822 82.092C35.2097 81.3203 34.1042 80.1932 32.7767 78.7761C30.1206 75.9407 26.5812 71.9501 23.0442 67.3267C19.505 62.7004 15.9832 57.4598 13.3499 52.1242C10.7111 46.7775 9 41.4064 9 36.5C9 29.2065 11.8973 22.2118 17.0546 17.0546C22.2118 11.8973 29.2065 9 36.5 9C43.7935 9 50.7882 11.8973 55.9454 17.0546C61.1027 22.2118 64 29.2065 64 36.5C64 41.4064 62.2889 46.7775 59.6501 52.1242C57.0168 57.4598 53.495 62.7004 49.9558 67.3267C46.4188 71.9501 42.8794 75.9407 40.2233 78.7761C38.8958 80.1932 37.7903 81.3203 37.0178 82.092C36.8235 82.2861 36.6503 82.4577 36.5 82.6058ZM25.7166 47.2834C28.5766 50.1433 32.4554 51.75 36.5 51.75C40.5446 51.75 44.4235 50.1433 47.2834 47.2834C50.1433 44.4235 51.75 40.5446 51.75 36.5C51.75 32.4554 50.1433 28.5766 47.2834 25.7166C44.4235 22.8567 40.5446 21.25 36.5 21.25C32.4554 21.25 28.5766 22.8567 25.7166 25.7166C22.8567 28.5766 21.25 32.4554 21.25 36.5C21.25 40.5446 22.8567 44.4235 25.7166 47.2834Z" fill="url(#paint0_linear_3101_69)" stroke="white" stroke-width="2"/>
<defs>
<linearGradient id="paint0_linear_3101_69" x1="36.5" y1="8" x2="36.5" y2="84" gradientUnits="userSpaceOnUse">
<stop stop-color="#CE7346"/>
<stop offset="0.479167" stop-color="#DB9449"/>
<stop offset="1" stop-color="#CF6A46"/>
</linearGradient>
</defs>
</svg>
