<svg width="57" height="76" viewBox="0 0 57 76" fill="none" xmlns="http://www.w3.org/2000/svg">
<path d="M28.5 74.6058C28.3497 74.4577 28.1765 74.2861 27.9822 74.092C27.2097 73.3203 26.1042 72.1932 24.7767 70.7761C22.1206 67.9407 18.5812 63.9501 15.0442 59.3267C11.505 54.7004 7.98325 49.4598 5.34986 44.1242C2.71106 38.7775 1 33.4064 1 28.5C1 21.2065 3.89731 14.2118 9.05456 9.05456C14.2118 3.89731 21.2065 1 28.5 1C35.7935 1 42.7882 3.89731 47.9454 9.05456C53.1027 14.2118 56 21.2065 56 28.5C56 33.4064 54.2889 38.7775 51.6501 44.1242C49.0168 49.4598 45.495 54.7004 41.9558 59.3267C38.4188 63.9501 34.8794 67.9407 32.2233 70.7761C30.8958 72.1932 29.7903 73.3203 29.0178 74.092C28.8235 74.2861 28.6503 74.4577 28.5 74.6058ZM17.7166 39.2834C20.5766 42.1433 24.4554 43.75 28.5 43.75C32.5446 43.75 36.4235 42.1433 39.2834 39.2834C42.1433 36.4235 43.75 32.5446 43.75 28.5C43.75 24.4554 42.1433 20.5766 39.2834 17.7166C36.4235 14.8567 32.5446 13.25 28.5 13.25C24.4554 13.25 20.5766 14.8567 17.7166 17.7166C14.8567 20.5766 13.25 24.4554 13.25 28.5C13.25 32.5446 14.8567 36.4235 17.7166 39.2834Z" fill="url(#paint0_linear_643_967)" stroke="white" stroke-width="2"/>
<defs>
<linearGradient id="paint0_linear_643_967" x1="28.5" y1="0" x2="28.5" y2="76" gradientUnits="userSpaceOnUse">
<stop stop-color="#CE7346"/>
<stop offset="0.479167" stop-color="#DB9449"/>
<stop offset="1" stop-color="#CF6A46"/>
</linearGradient>
</defs>
</svg>
