<svg width="260" height="100" viewBox="0 0 260 100" fill="none" xmlns="http://www.w3.org/2000/svg">
<path d="M33.6878 34.7963L30.4679 54.0787C30.3919 54.5371 29.8962 54.7443 29.4633 54.5759L19.789 50.8477C18.5905 50.3874 18.1896 49.4904 18.3555 48.5009L20.4179 36.1602C20.5818 35.1706 21.2515 34.4511 22.5351 34.4013L32.9004 34.0006C33.3642 33.9828 33.7648 34.3377 33.6878 34.7963ZM5.91221 48.6795L23.3323 57.6527C23.746 57.8639 23.7922 58.3981 23.4992 58.7579L16.9705 66.7923C16.1639 67.788 15.1841 67.8946 14.2895 67.4332L3.14163 61.69C2.24801 61.2286 1.76618 60.3736 2.11306 59.1398L4.91107 49.1828C5.03604 48.7353 5.49839 48.4652 5.91221 48.6795ZM10.5731 79.2273L24.5359 65.5024C24.8678 65.1765 25.3896 65.2991 25.6425 65.6877L31.2786 74.3679C31.9763 75.4422 31.7723 76.4029 31.0556 77.1075L22.1207 85.8912C21.4039 86.5958 20.4382 86.7852 19.3685 86.0735L10.7438 80.3313C10.3569 80.0752 10.2422 79.5532 10.5731 79.2273ZM41.32 84.206L32.4391 66.777C32.2282 66.3624 32.5031 65.9039 32.9519 65.7814L42.9572 63.0618C44.1977 62.7249 45.0544 63.2103 45.5102 64.1051L51.1932 75.2589C51.648 76.1539 51.537 77.1285 50.5335 77.9278L42.4271 84.3806C42.0632 84.6696 41.531 84.6196 41.32 84.206ZM55.4595 56.8364L36.0691 59.7394C35.6073 59.8091 35.2574 59.4036 35.2834 58.9421L35.8522 48.6168C35.9212 47.3382 36.654 46.6815 37.6496 46.5311L50.0579 44.6755C51.0535 44.526 51.9473 44.9395 52.3902 46.1414L55.9739 55.8437C56.1348 56.2791 55.9205 56.7686 55.4595 56.8364Z" fill="white"/>
<path d="M77.2121 46.6595V73.8123H83.3689V67.7741H93.2683C99.672 67.7741 104.498 63.698 104.498 57.315C104.498 50.9321 99.6722 46.6598 93.2683 46.6598L77.2121 46.6595ZM83.3689 52.2572H93.0216C96.1745 52.2572 98.3418 54.1714 98.3418 57.3147C98.3418 60.4579 96.1745 62.176 93.0216 62.176H83.3689V52.2572ZM114.447 60.2607C114.447 54.663 118.435 51.2754 123.557 51.2754C128.679 51.2754 132.669 54.6627 132.669 60.2607C132.669 65.8584 128.679 69.246 123.557 69.246C118.435 69.246 114.447 65.8587 114.447 60.2607ZM138.826 60.2607C138.826 51.7169 131.832 46.0217 123.558 46.0217C115.284 46.0217 108.291 51.7172 108.291 60.2607C108.291 68.8042 115.284 74.501 123.558 74.501C131.833 74.501 138.826 68.8045 138.826 60.2607ZM143.356 46.6594V73.8122H168.279V68.2642H149.512V46.6594H143.356ZM162.712 46.6594L175.469 67.0365V73.8122H181.528V67.0365L194.332 46.6594H187.288L178.868 61.1444H178.473L169.756 46.6594H162.712ZM197.534 46.6594V60.506C197.534 69.492 202.952 74.501 211.471 74.501C219.991 74.501 225.408 69.4922 225.408 60.506V46.6594H219.254V60.5544C219.254 65.858 216.841 69.0995 211.471 69.0995C206.104 69.0995 203.691 65.8577 203.691 60.5544V46.6594H197.534ZM256.931 50.0468C252.695 46.9055 248.264 46.0215 243.19 46.0215C236.245 46.0215 230.533 48.6733 230.533 54.4175C230.533 59.4751 233.931 61.6347 239.497 62.2731L248.658 63.3046C250.973 63.5507 251.76 64.2862 251.76 65.7592C251.76 68.0662 248.606 69.1465 244.274 69.1465C239.792 69.1465 236.147 67.9695 232.405 65.3664L229.499 70.1289C233.833 73.3211 238.018 74.5001 243.586 74.5001C251.761 74.5001 257.72 71.7495 257.72 65.6606C257.72 60.6527 254.125 58.1974 248.313 57.5113L240.137 56.5776C238.019 56.3324 236.592 55.9398 236.592 54.3682C236.592 52.8464 237.872 51.4712 243.19 51.4712C247.524 51.4712 250.776 52.3551 253.977 54.5656L256.931 50.0462" fill="white"/>
</svg>
