<svg width="260" height="100" viewBox="0 0 260 100" fill="none" xmlns="http://www.w3.org/2000/svg">
<path d="M66.2771 42.6799V44.1772H79.0994C79.9542 44.1772 81.2364 44.1772 82.0783 45.0335C82.9202 45.8898 82.9331 47.1743 82.9331 48.0177V60.8626C82.9331 61.7189 82.9331 63.0034 82.0783 63.8468C81.2235 64.7031 79.9413 64.7031 79.0994 64.7031H72.9084C71.8412 64.7031 70.4502 64.7031 69.9295 63.525C69.3959 62.3469 70.143 61.2778 70.7843 60.4111L79.1253 49.2788H66.303L61.1741 56.1294C60.3141 57.2764 59.5707 58.2703 59.5707 59.5548C59.5707 60.8393 60.2623 61.7631 61.1741 62.9801L62.4563 64.6927C63.7386 66.4054 65.0208 68.1181 66.7304 68.9744C68.4401 69.8307 70.4605 69.8307 73.2581 69.8307H78.8015C82.0136 69.8307 86.8057 69.8307 90.0178 66.613C93.2298 63.3953 93.2298 58.6984 93.2298 56.9858V51.8478C93.2298 50.1351 93.2298 45.4383 90.0178 42.2206C86.8057 39.0029 82.0136 39.0029 78.8015 39.0029L69.9425 39C69.0877 38.9997 68.0204 39 67.1708 39.8563C66.316 40.7127 66.316 41.7818 66.316 42.6329" fill="white"/>
<path d="M50.994 49.323H63.6867L48.4036 69.9268H35.7108L50.994 49.323Z" fill="white"/>
<path d="M1 52.9559C1 52.0996 1 51.0305 1.85482 50.1793C2.70964 49.3282 3.77687 49.323 4.62651 49.323H26.1006C28.8723 49.323 30.9187 49.323 32.6283 50.1793C34.338 51.0357 35.6072 52.7483 36.9024 54.461L38.1846 56.1736C39.0939 57.3881 39.7881 58.3145 39.7881 59.5989C39.7881 60.8834 39.0446 61.8773 38.1846 63.0243L33.0557 69.8749H20.2334L28.5744 58.7426C29.2142 57.8863 29.9628 56.8172 29.4292 55.6287C28.8956 54.4506 27.5072 54.4506 26.4503 54.4506H16.3997V80.1405H6.14187V54.4506H1.01295V52.9507" fill="white"/>
<path d="M105.392 66.2937C104.622 67.342 103.837 68.3748 103.068 69.4076V69.9941H105.236C106.298 68.5772 106.853 67.8377 106.853 66.9839H108.977V69.9941H111.007V66.9839H113.132C113.132 67.8325 113.686 68.572 114.748 69.9941H116.916V69.4076L114.577 66.2937C116.546 64.8146 116.546 64.8146 116.546 62.8684V62.2222H114.331V62.8684C114.331 65.2272 114.331 65.2272 112.023 65.2272H111.007V62.217H108.977V65.2272H107.961C105.653 65.2272 105.653 65.2272 105.653 62.8684V62.2222H103.438V62.8684C103.438 64.8094 103.438 64.8094 105.392 66.2937Z" fill="white"/>
<path fill-rule="evenodd" clip-rule="evenodd" d="M120.934 65.2555C120.934 63.5455 120.934 63.5455 122.825 63.5455C124.716 63.5455 124.716 63.5455 124.716 65.2555H120.934ZM120.934 66.6412H122.825C124.809 66.6256 125.394 66.6568 126.063 66.5024L126.848 66.3176V65.5625C126.848 64.2832 126.848 61.8777 123.195 61.8777H122.457C118.804 61.8777 118.804 64.2806 118.804 65.5884V66.328C118.804 67.7137 118.835 70.0388 122.845 70.0388C123.446 70.0388 124.799 70.0388 126.265 69.6703V68.0069H125.85L124.374 68.3754H122.804C120.913 68.3749 120.913 68.3749 120.913 66.6653L120.934 66.6412Z" fill="white"/>
<path d="M130.259 62.0898C130.259 63.2602 130.167 66.7867 128.321 69.2519V69.8539H130.583C131.922 68.066 131.922 65.7279 131.922 63.8077H135.108V69.8539H137.139V62.095H130.275" fill="white"/>
<path fill-rule="evenodd" clip-rule="evenodd" d="M141.657 65.2555C141.657 63.5455 141.657 63.5455 143.55 63.5455C145.441 63.5455 145.441 63.5455 145.441 65.2555H141.659M141.659 66.6412H143.553C145.537 66.6256 146.122 66.6568 146.791 66.5024L147.576 66.3176V65.5625C147.576 64.2832 147.576 61.8777 143.923 61.8777H143.185C139.533 61.8777 139.533 64.2806 139.533 65.5884V66.328C139.533 67.7137 139.563 70.0388 143.573 70.0388C144.174 70.0388 145.527 70.0388 146.993 69.6703V68.0069H146.578L145.102 68.3754H143.532C141.641 68.3749 141.641 68.3749 141.641 66.6653L141.659 66.6412Z" fill="white"/>
<path d="M155.126 66.0341V65.8029C156.696 65.4033 156.696 64.4328 156.696 64.0617C156.696 63.3221 156.696 61.843 152.966 61.843C152.412 61.843 151.119 61.843 149.65 62.2141V63.8774H150.065L151.541 63.5064H153.248C154.432 63.5064 154.494 63.5064 154.494 64.3679C154.494 65.2164 154.494 65.2164 153.248 65.2164H151.541V66.6021H153.248C154.432 66.6021 154.494 66.6021 154.494 67.4507C154.494 68.3148 154.494 68.3148 153.248 68.3148H151.541L150.065 67.9437H149.65V69.6071C151.127 69.9755 152.422 69.9756 152.966 69.9756C156.696 69.9756 156.696 68.4964 156.696 67.7569C156.696 67.3884 156.696 66.4179 155.126 66.0312" fill="white"/>
<path d="M165.229 62.0898V64.9962H161.084V62.0898H159.012V69.9266H161.084V66.8126H165.229V69.9266H167.042V62.0898H165.229Z" fill="white"/>
<path fill-rule="evenodd" clip-rule="evenodd" d="M173.518 66.0342C175.134 66.0342 175.134 66.0342 175.134 67.2357C175.134 68.4371 175.134 68.4371 173.518 68.4371H171.902V66.0342H173.518ZM180.771 62.1418H178.74V69.9007H180.771V62.1418ZM173.803 69.9007C176.248 69.9007 177.274 69.3609 177.274 67.2539C177.274 66.0991 177.274 64.4254 174.088 64.4254C173.627 64.4254 172.842 64.4721 171.92 64.703V62.1133H169.889V69.8721H173.8L173.803 69.9007Z" fill="white"/>
<path fill-rule="evenodd" clip-rule="evenodd" d="M185.434 65.2558C185.434 63.5457 185.434 63.5457 187.325 63.5457C189.216 63.5457 189.216 63.5457 189.216 65.2558H185.434ZM185.434 66.6415H187.325C189.309 66.6259 189.894 66.657 190.563 66.5026L191.348 66.3179V65.5627C191.348 64.2834 191.348 61.8779 187.695 61.8779H186.957C183.304 61.8779 183.304 64.2808 183.304 65.5887V66.3282C183.304 67.7139 183.335 70.039 187.345 70.039C187.946 70.039 189.299 70.039 190.765 69.6705V68.0072H190.35L188.874 68.3757H187.304C185.413 68.3751 185.413 68.3751 185.413 66.6656L185.434 66.6415Z" fill="white"/>
<path fill-rule="evenodd" clip-rule="evenodd" d="M199.681 65.7748C199.681 63.6937 199.681 63.7404 202.427 63.7404C202.797 63.7404 203.305 63.7863 203.919 63.9252V67.2467L201.95 67.7397C199.673 67.74 199.673 67.74 199.673 65.7676M198.474 71.1391V72.8959C199.95 73.2669 201.142 73.2669 201.608 73.2669C205.804 73.2669 205.934 71.4479 205.934 69.3745V62.1606H205.271L204.286 62.9002C203.61 62.0205 201.963 61.9919 201.437 61.9919C197.526 61.9919 197.526 64.4571 197.526 65.573V65.944C197.526 67.2389 197.526 69.3693 200.841 69.3693C201.841 69.3693 203.025 69.0917 203.898 68.4456V69.0917C203.898 71.479 203.852 71.4946 201.406 71.4946H200.344L198.867 71.1235H198.453L198.474 71.1391Z" fill="white"/>
<path fill-rule="evenodd" clip-rule="evenodd" d="M212.114 61.9082C208.203 61.9082 208.203 64.2203 208.203 65.619V66.3585C208.203 67.7442 208.203 70.0693 212.114 70.0693H212.853C216.764 70.0693 216.764 67.7572 216.764 66.3585V65.619C216.764 64.2333 216.764 61.9082 212.853 61.9082H212.114ZM212.482 63.6183C214.65 63.6183 214.65 63.6183 214.65 65.9771C214.65 68.3359 214.65 68.3359 212.482 68.3359C210.314 68.3359 210.314 68.3359 210.314 65.9771C210.314 63.6183 210.314 63.6183 212.482 63.6183Z" fill="white"/>
<path fill-rule="evenodd" clip-rule="evenodd" d="M225.325 66.0341C225.325 68.3462 225.325 68.3462 223.064 68.3462C222.51 68.3462 221.802 68.3462 221.08 68.1612V64.2688L223.048 63.7758C225.325 63.7758 225.325 63.8064 225.325 66.0256M219.057 62.1332V73.0319H221.087V69.6585C222.01 69.8897 222.748 70.0737 223.859 70.0737C227.46 70.0737 227.46 67.4268 227.46 66.3629V65.6234C227.46 64.3285 227.46 61.9126 224.092 61.9126C222.37 61.9126 221.372 62.6677 220.828 63.0829L220.09 62.0968H219.075L219.057 62.1332Z" fill="white"/>
<path fill-rule="evenodd" clip-rule="evenodd" d="M233.614 61.9082C229.703 61.9082 229.703 64.2203 229.703 65.619V66.3585C229.703 67.7442 229.703 70.0693 233.614 70.0693H234.353C238.264 70.0693 238.264 67.7572 238.264 66.3585V65.619C238.264 64.2333 238.264 61.9082 234.353 61.9082H233.614ZM233.982 63.6183C236.15 63.6183 236.15 63.6183 236.15 65.9771C236.15 68.3359 236.15 68.3359 233.982 68.3359C231.814 68.3359 231.814 68.3359 231.814 65.9771C231.814 63.6183 231.814 63.6183 233.982 63.6183Z" fill="white"/>
<path d="M244.235 61.9084C243.497 61.9084 242.528 61.9084 241.049 62.2795V63.9429H241.463L242.94 63.5744H244.831C245.846 63.5744 245.846 63.5744 245.846 64.1609C245.846 64.5605 245.846 64.685 245.061 64.8226L243.214 65.2845C242.152 65.5465 240.676 65.9462 240.676 67.5498C240.676 68.6138 240.676 70.0462 244.406 70.0462C245.144 70.0462 246.113 70.0462 247.592 69.6777V68.0143H247.178C246.561 68.1838 245.978 68.3231 245.748 68.3854H243.81C242.795 68.3854 242.795 68.3854 242.795 67.799C242.795 67.446 242.795 67.3682 243.225 67.2436L244.256 66.966L245.424 66.6728C246.486 66.4107 247.962 66.0266 247.962 64.4074C247.962 63.3434 247.962 61.911 244.232 61.911" fill="white"/>
<path d="M257.446 70.1861L258.953 69.0599C258.399 68.3203 258.399 68.3203 258.399 67.0099V62.2093H256.368V67.8403L254.4 68.3333C252.306 68.3333 252.306 68.3333 252.306 66.1925V62.1963H250.276V66.5039C250.276 68.0297 250.276 70.1627 253.358 70.1627C254.975 70.1627 255.974 69.4076 256.518 68.9924L257.425 70.1939" fill="white"/>
<path fill-rule="evenodd" clip-rule="evenodd" d="M103.578 43.5362V54.4349H105.793V51.4248H107.547C110.552 51.4248 112.909 51.4248 112.909 47.4805C112.909 43.5103 110.554 43.5103 107.547 43.5103H103.583M105.798 49.4786V45.4565H108.466C110.451 45.4565 110.544 45.4565 110.544 47.4753C110.544 49.4319 110.544 49.4786 108.466 49.4786H105.798Z" fill="white"/>
<path fill-rule="evenodd" clip-rule="evenodd" d="M118.602 46.4944C114.691 46.4944 114.691 48.8065 114.691 50.2051V50.9447C114.691 52.3304 114.691 54.6555 118.602 54.6555H119.341C123.252 54.6555 123.252 52.3434 123.252 50.9447V50.2051C123.252 48.8194 123.252 46.4944 119.341 46.4944H118.602ZM118.97 48.2044C121.138 48.2044 121.138 48.2044 121.138 50.5632C121.138 52.922 121.138 52.922 118.97 52.922C116.802 52.922 116.802 52.922 116.802 50.5632C116.802 48.2044 116.802 48.2044 118.97 48.2044Z" fill="white"/>
<path d="M129.223 54.6425C129.777 54.6425 131.207 54.6425 132.694 54.2715V52.6081H132.28L130.787 52.9766H129.912C127.342 52.9766 127.342 52.9766 127.342 50.5737C127.342 48.1708 127.342 48.1708 129.233 48.1708C130.834 48.1708 130.834 48.1708 131.217 49.6966L133.064 49.2347C133.064 48.4951 133.064 46.51 129.593 46.51H128.855C125.203 46.51 125.203 48.8221 125.203 50.2208V50.9603C125.203 52.346 125.203 54.6711 129.218 54.6711" fill="white"/>
<path d="M139.066 54.6425C139.621 54.6425 141.05 54.6425 142.537 54.2715V52.6081H142.123L140.631 52.9766H139.755C137.186 52.9766 137.186 52.9766 137.186 50.5737C137.186 48.1708 137.186 48.1708 139.077 48.1708C140.677 48.1708 140.677 48.1708 141.061 49.6966L142.908 49.2347C142.908 48.4951 142.908 46.51 139.437 46.51H138.698C135.046 46.51 135.046 48.8221 135.046 50.2208V50.9603C135.046 52.346 135.046 54.6711 139.061 54.6711" fill="white"/>
<path d="M152.018 54.6685L153.526 53.5423C152.971 52.8028 152.971 52.8028 152.971 51.4923V46.6917H150.94V52.3227L148.972 52.8157C146.879 52.8157 146.879 52.8157 146.879 50.6749V46.6787H144.848V50.9863C144.848 52.5121 144.848 54.6452 147.93 54.6452C149.547 54.6452 150.547 53.89 151.091 53.4749L151.997 54.6763" fill="white"/>
<path fill-rule="evenodd" clip-rule="evenodd" d="M159.271 43.9254C158.271 43.9254 158.271 43.9254 157.779 43.3701L156.888 44.063C157.857 45.3111 158.349 45.4045 159.763 45.4045H160.103C161.501 45.4045 162.009 45.3119 162.952 44.063L162.061 43.3701C161.584 43.9254 161.584 43.9254 160.569 43.9254H159.261M163.017 54.6944L164.524 53.5682C163.97 52.8287 163.97 52.8287 163.97 51.5182V46.7176H161.939V52.3486L159.97 52.8416C157.924 52.8416 157.877 52.8416 157.877 50.7008V46.7046H155.847V51.0122C155.847 52.538 155.847 54.6711 158.929 54.6711C160.546 54.6711 161.545 53.9159 162.089 53.5008L162.996 54.7022L163.017 54.6944Z" fill="white"/>
<path d="M170.41 54.6425C170.964 54.6425 172.394 54.6425 173.881 54.2715V52.6081H173.466L171.974 52.9766H171.096C168.526 52.9766 168.526 52.9766 168.526 50.5737C168.526 48.1708 168.526 48.1708 170.417 48.1708C172.018 48.1708 172.018 48.1708 172.402 49.6966L174.249 49.2347C174.249 48.4951 174.249 46.51 170.777 46.51H170.039C166.387 46.51 166.387 48.8221 166.387 50.2208V50.9603C166.387 52.346 166.387 54.6711 170.402 54.6711" fill="white"/>
<path d="M176.626 46.702V54.4609H178.657V51.4507H181.149C181.149 52.2993 181.704 53.0388 182.763 54.4609H184.931V53.8744L182.592 50.7605C184.561 49.2814 184.561 49.2814 184.561 47.3352V46.689H182.346V47.3352C182.346 49.694 182.346 49.694 180.038 49.694H178.655V46.6838H176.624" fill="white"/>
<path d="M194.241 54.6685L195.749 53.5423C195.194 52.8028 195.194 52.8028 195.194 51.4923V46.6917H193.163V52.3227L191.195 52.8157C189.102 52.8157 189.102 52.8157 189.102 50.6749V46.6787H187.071V50.9863C187.071 52.5121 187.071 54.6452 190.153 54.6452C191.77 54.6452 192.77 53.89 193.314 53.4749L194.22 54.6763" fill="white"/>
<path fill-rule="evenodd" clip-rule="evenodd" d="M199.681 49.8678C199.681 48.1578 199.681 48.1578 201.574 48.1578C203.465 48.1578 203.465 48.1578 203.465 49.8678H199.683M199.683 51.2535H201.577C203.561 51.2379 204.146 51.2691 204.815 51.1147L205.6 50.9299V50.1748C205.6 48.8955 205.6 46.49 201.947 46.49H201.209C197.557 46.49 197.557 48.8929 197.557 50.2008V50.9403C197.557 52.326 197.587 54.6511 201.598 54.6511C202.199 54.6511 203.551 54.6511 205.017 54.28V52.6166H204.602L203.126 52.9851H201.556C199.663 52.9849 199.663 52.9849 199.663 51.2751L199.683 51.2535Z" fill="white"/>
</svg>
