<svg width="27" height="27" viewBox="0 0 27 27" fill="none" xmlns="http://www.w3.org/2000/svg">
<path d="M22.9814 4.07525C20.4746 1.5776 17.1409 0.201401 13.5889 0.199997C6.27052 0.199997 0.31421 6.12739 0.311281 13.4131C0.310341 15.742 0.921733 18.0154 2.08363 20.0192L0.199951 26.8667L7.23861 25.0292C9.17797 26.0818 11.3614 26.6366 13.5837 26.6375H13.5891C20.9068 26.6375 26.8637 20.7094 26.8666 13.4236C26.868 9.89289 25.4882 6.57291 22.9814 4.07525ZM13.5891 24.4058H13.5846C11.6043 24.4051 9.66209 23.8756 7.9677 22.875L7.56468 22.637L3.38784 23.7274L4.50273 19.6745L4.24026 19.259C3.13557 17.5103 2.55212 15.4892 2.55299 13.414C2.55538 7.35841 7.50607 2.43175 13.5934 2.43175C16.541 2.43286 19.3119 3.57682 21.3955 5.65274C23.4791 7.72867 24.6259 10.4882 24.6248 13.4228C24.6224 19.4789 19.6718 24.4058 13.5891 24.4058ZM19.6425 16.1802C19.3106 16.0149 17.6796 15.2162 17.3755 15.106C17.0714 14.9958 16.8503 14.9407 16.629 15.2713C16.4079 15.6018 15.7721 16.3455 15.5785 16.5658C15.385 16.7862 15.1915 16.8138 14.8597 16.6485C14.5279 16.4832 13.459 16.1346 12.1918 15.0097C11.2056 14.1343 10.5397 13.053 10.3462 12.7224C10.1527 12.3919 10.3256 12.2132 10.4917 12.0486C10.6409 11.9007 10.8234 11.663 10.9893 11.4702C11.1552 11.2774 11.2105 11.1396 11.3211 10.9193C11.4317 10.6989 11.3764 10.5061 11.2934 10.3408C11.2105 10.1756 10.547 8.55042 10.2705 7.88935C10.0012 7.24553 9.72768 7.33264 9.52404 7.32253C9.33074 7.31295 9.10934 7.31093 8.8882 7.31093C8.66706 7.31093 8.30761 7.39355 8.00353 7.7241C7.69944 8.05465 6.84239 8.85344 6.84239 10.4785C6.84239 12.1037 8.03115 13.6737 8.19704 13.894C8.36294 14.1144 10.5364 17.4494 13.8645 18.8795C14.656 19.2197 15.274 19.4229 15.7558 19.5751C16.5505 19.8263 17.2738 19.7909 17.8455 19.7059C18.4829 19.6111 19.8083 18.9072 20.0848 18.1359C20.3613 17.3646 20.3612 16.7036 20.2783 16.5659C20.1954 16.4281 19.9742 16.3455 19.6425 16.1802Z" fill="white"/>
</svg>
