<svg width="124" height="123" viewBox="0 0 124 123" fill="none" xmlns="http://www.w3.org/2000/svg">
<path fill-rule="evenodd" clip-rule="evenodd" d="M3.24365 59.0226C3.33014 58.59 3.41663 58.1575 3.51033 57.7249L3.24365 59.0226ZM3.01301 60.3275C3.08508 59.8877 3.16437 59.4551 3.24365 59.0226L3.01301 60.3275ZM14.1992 102.545C14.1199 102.444 14.0406 102.35 13.9614 102.25C13.8028 102.048 13.6442 101.853 13.4857 101.651C13.4208 101.565 13.3559 101.478 13.2838 101.392C12.9523 100.966 12.6279 100.534 12.3108 100.094C12.2604 100.029 12.2171 99.9642 12.1667 99.8993C12.0297 99.7047 11.8928 99.51 11.7558 99.3154C11.6693 99.1856 11.5756 99.063 11.4891 98.9333C11.3666 98.7458 11.2369 98.5656 11.1144 98.3782C11.0207 98.234 10.927 98.097 10.8333 97.9528C10.7107 97.7654 10.5954 97.5851 10.4729 97.3977C10.3864 97.2607 10.2999 97.1165 10.2062 96.9723C10.0909 96.7849 9.96834 96.5903 9.85302 96.3956C9.75932 96.2442 9.67283 96.0928 9.58634 95.9414C9.43498 95.6891 9.29083 95.4368 9.14668 95.1844C9.00973 94.9393 8.86558 94.6942 8.73584 94.4419C8.64214 94.2761 8.55565 94.103 8.46195 93.93C8.36826 93.7498 8.26735 93.5695 8.17365 93.3893C8.08716 93.2235 8.00067 93.0505 7.91418 92.8847C7.82048 92.6972 7.72678 92.5098 7.63308 92.3223C7.5538 92.1565 7.46731 91.9835 7.38802 91.8177C7.29432 91.623 7.20783 91.4356 7.12134 91.2409C7.04206 91.0679 6.96277 90.9021 6.8907 90.7291C6.797 90.52 6.71051 90.3182 6.61681 90.1091C6.55194 89.9505 6.47986 89.7991 6.415 89.6405C6.27084 89.2944 6.12669 88.9412 5.98254 88.5879C5.92488 88.4437 5.87443 88.2996 5.81676 88.1554C5.73027 87.9247 5.63657 87.694 5.55729 87.4633C5.49963 87.2975 5.44197 87.1316 5.3771 86.973C5.29782 86.7568 5.22574 86.5477 5.15367 86.3314C5.096 86.1656 5.03834 85.9926 4.98068 85.8268C4.90861 85.6033 4.83653 85.3798 4.76445 85.1563C4.714 84.9977 4.66355 84.8463 4.6131 84.6877C4.53381 84.4354 4.46174 84.183 4.38966 83.9235C4.34641 83.7865 4.31038 83.6496 4.26713 83.5126C4.15902 83.1305 4.05811 82.7484 3.9572 82.3663C3.93558 82.2726 3.91396 82.1789 3.88513 82.0851C3.80584 81.7823 3.73377 81.4796 3.66169 81.1768C3.62565 81.0326 3.59682 80.8812 3.56079 80.737C3.50312 80.4847 3.44546 80.2323 3.39501 79.98C3.35897 79.8214 3.33014 79.6628 3.2941 79.497C3.24365 79.2447 3.1932 78.9923 3.14995 78.74C3.12112 78.5886 3.09229 78.4372 3.07067 78.2858C3.02022 78.0119 2.97697 77.7307 2.93372 77.4568C2.9121 77.327 2.89048 77.19 2.86886 77.0602C2.81119 76.6565 2.75353 76.2528 2.70308 75.8491C2.69587 75.777 2.68867 75.7049 2.68146 75.6328C2.63821 75.294 2.60217 74.9479 2.56614 74.6091C2.55172 74.4649 2.53731 74.3279 2.52289 74.1837C2.49406 73.9026 2.47244 73.6286 2.45081 73.3475C2.4364 73.1961 2.42919 73.0447 2.41478 72.8933C2.39315 72.6193 2.37874 72.3454 2.36432 72.0642C2.35712 71.9128 2.34991 71.7686 2.3427 71.6172C2.32829 71.3288 2.32108 71.0333 2.30666 70.7377C2.29945 70.6007 2.29945 70.4709 2.29225 70.334C2.28504 69.9158 2.27783 69.4905 2.27783 69.0651C2.27783 68.8344 2.27783 68.6109 2.28504 68.3802C2.28504 68.1496 2.29225 67.9261 2.29945 67.6954C2.30666 67.4647 2.31387 67.2412 2.32108 67.0177C2.32829 66.7942 2.3427 66.5635 2.34991 66.34C2.36432 66.1165 2.37153 65.8858 2.38595 65.6623C2.40036 65.4389 2.41478 65.2154 2.4364 64.9847C2.45081 64.7612 2.47244 64.5377 2.49406 64.3142C2.51568 64.0907 2.53731 63.8672 2.55893 63.6437C2.58055 63.4202 2.60217 63.1968 2.631 62.9733C2.65983 62.7498 2.68146 62.5335 2.71029 62.31C2.73912 62.0865 2.76795 61.8702 2.79678 61.6468C2.82561 61.4233 2.86165 61.207 2.89048 60.9907C2.92652 60.7744 2.95535 60.5509 2.99859 60.3347C3.07067 59.8949 3.14995 59.4623 3.22924 59.0298C3.31573 58.5972 3.40222 58.1647 3.49592 57.7321C3.87071 56.0163 4.32479 54.3293 4.86536 52.6712C7.34478 45.0293 11.5108 38.1516 16.9237 32.4707C17.2192 32.1607 17.5147 31.8579 17.8102 31.5623L55.3186 69.0651L92.8125 106.568C83.2192 116.164 69.9644 122.104 55.3186 122.104C50.5688 122.104 45.9703 121.477 41.5881 120.302C39.8294 119.833 38.0996 119.271 36.413 118.629L36.3842 118.622C34.3733 117.85 32.42 116.964 30.5316 115.962L30.474 115.933C30.1713 115.774 29.8757 115.608 29.5802 115.45L29.5154 115.414C27.9801 114.556 26.4954 113.626 25.0611 112.631L24.989 112.58C24.7223 112.393 24.4628 112.206 24.1961 112.018L24.0808 111.932C23.8214 111.737 23.5547 111.55 23.2952 111.348L23.2592 111.319C22.1708 110.49 21.1113 109.617 20.0878 108.709L19.9437 108.587C19.7274 108.392 19.504 108.19 19.2878 107.995L19.1004 107.822C18.8914 107.628 18.6823 107.426 18.4733 107.231L18.3003 107.065C17.3706 106.164 16.4768 105.227 15.6191 104.254L15.4245 104.03C15.2515 103.836 15.0785 103.634 14.9128 103.439L14.6677 103.144C14.5235 102.934 14.3578 102.74 14.1992 102.545ZM56.5871 16.0407C56.7241 16.0407 56.8538 16.0479 56.9907 16.0551C57.2863 16.0623 57.5746 16.0768 57.8701 16.0912C58.0214 16.0984 58.1656 16.1056 58.3169 16.1128C58.5908 16.1272 58.8719 16.1489 59.1458 16.1633C59.2972 16.1705 59.4485 16.1849 59.5999 16.1993C59.881 16.2209 60.1549 16.2498 60.436 16.2714C60.5801 16.2858 60.7171 16.3002 60.8612 16.3147C61.2072 16.3507 61.5459 16.3868 61.8847 16.43C61.9568 16.4372 62.0289 16.4444 62.1009 16.4516C62.5046 16.5021 62.9082 16.5598 63.3118 16.6247C63.4415 16.6463 63.5713 16.6679 63.701 16.6896C63.9821 16.7328 64.2632 16.7833 64.5443 16.8265C64.6957 16.8554 64.8398 16.8842 64.9912 16.9058C65.2434 16.9491 65.4957 16.9996 65.748 17.05C65.9065 17.0789 66.0651 17.1149 66.2309 17.1509C66.4831 17.2014 66.7354 17.2591 66.9877 17.3168C67.1318 17.3528 67.2832 17.3816 67.4273 17.4177C67.7301 17.4898 68.0256 17.5619 68.3211 17.634C68.4148 17.6556 68.5157 17.6844 68.6166 17.7061C69.0058 17.807 69.3878 17.9079 69.7698 18.0161C69.8923 18.0521 70.0149 18.0882 70.1374 18.1242C70.4041 18.2035 70.6636 18.2756 70.9302 18.3621C71.0888 18.4126 71.2402 18.4558 71.3987 18.5063C71.6222 18.5784 71.8528 18.6505 72.0762 18.7298C72.242 18.7875 72.4078 18.8379 72.5736 18.8956C72.7898 18.9677 73.0132 19.047 73.2295 19.1263C73.388 19.184 73.5538 19.2416 73.7124 19.2993C73.9502 19.3858 74.1881 19.4796 74.4259 19.5661C74.5629 19.6165 74.6998 19.6742 74.844 19.7247C75.1971 19.8616 75.5503 20.0058 75.9035 20.1572C76.0548 20.2221 76.199 20.287 76.3504 20.3519C76.5666 20.4456 76.7828 20.5393 76.9918 20.633C77.1576 20.7051 77.3234 20.7844 77.4892 20.8565C77.6838 20.9502 77.8856 21.0368 78.0802 21.1305C78.246 21.2098 78.4117 21.2891 78.5775 21.3684C78.7721 21.4621 78.9595 21.5558 79.1469 21.6496C79.3127 21.7361 79.4857 21.8226 79.6514 21.9091C79.8316 22.0028 80.0118 22.0965 80.192 22.1975C80.365 22.2912 80.5308 22.3777 80.7038 22.4714C80.9921 22.63 81.2876 22.7958 81.5759 22.9616C81.7777 23.077 81.9723 23.1923 82.1741 23.3077C82.3399 23.4014 82.4984 23.5023 82.6642 23.5961C82.8516 23.7114 83.039 23.8268 83.2264 23.9421C83.3706 24.0286 83.5147 24.1223 83.6589 24.2089C83.8463 24.3242 84.0337 24.4468 84.2139 24.5693C84.358 24.663 84.4949 24.7568 84.6391 24.8505C84.8265 24.973 85.0139 25.0956 85.1941 25.2254C85.3238 25.3119 85.4464 25.4056 85.5761 25.4921C85.7707 25.6291 85.9653 25.7589 86.1599 25.903C86.2248 25.9535 86.2896 25.9968 86.3545 26.0472C86.7798 26.3572 87.205 26.6744 87.623 26.9989C87.724 27.0709 87.8177 27.1502 87.9186 27.2223C88.106 27.3665 88.2934 27.5179 88.4808 27.6693C88.5961 27.763 88.7114 27.8495 88.8195 27.9433C89.0069 28.0947 89.1943 28.2461 89.3745 28.4047L89.6916 28.6714C89.8862 28.8372 90.0736 29.003 90.2682 29.1689C90.3547 29.2409 90.434 29.313 90.5205 29.3923C90.7295 29.5726 90.9313 29.76 91.1331 29.9475L91.1548 29.9691C91.8899 30.6468 92.6107 31.3461 93.3099 32.0598L93.4756 32.2328C93.6774 32.4347 93.872 32.6437 94.0666 32.8528L94.254 33.0475C94.4486 33.2565 94.6433 33.4728 94.8379 33.6891L94.982 33.8549C95.883 34.8714 96.7479 35.9168 97.5695 36.9982L97.6128 37.0486C97.8074 37.3009 97.9948 37.5605 98.1894 37.82L98.2831 37.9498C98.4705 38.2093 98.6579 38.4761 98.8453 38.7356L98.8957 38.8077C99.8976 40.2423 100.827 41.7347 101.685 43.2702L101.714 43.3207C101.88 43.6235 102.045 43.9263 102.204 44.2291L102.226 44.2651C103.062 45.844 103.819 47.4661 104.496 49.1242C104.633 49.4558 104.763 49.7947 104.892 50.1335V50.1407C107.141 56.0163 108.374 62.3965 108.374 69.0651C108.374 73.8233 107.739 78.4372 106.565 82.8277L79.082 55.3386L65.3371 41.6193L41.5593 17.8358L41.7683 17.7782L41.9773 17.7277L42.1863 17.6772L42.3953 17.6268L42.6044 17.5763L42.8134 17.5258L43.0224 17.4754L43.2314 17.4249L43.4404 17.3744L43.6495 17.324L43.8585 17.2807L44.0675 17.2375L44.2765 17.1942L44.4856 17.1509L44.6946 17.1077L44.9036 17.0644L45.1126 17.0212L45.3216 16.9779L45.5307 16.9347L45.7397 16.8986L45.9487 16.8626L46.1577 16.8265L46.3667 16.7905L46.583 16.7544L46.7992 16.7184L47.0154 16.6823L47.2316 16.6463L47.4479 16.6102L47.6641 16.5814L47.8803 16.5526L48.0966 16.5237L48.3128 16.4949L48.529 16.4661L48.7452 16.4372L48.9615 16.4084L49.1777 16.3795L49.3939 16.3579L49.6102 16.3363L49.8264 16.3147L50.0426 16.293L50.2588 16.2714L50.4751 16.2498L50.6913 16.2282L50.9075 16.2065L51.1237 16.1921L51.34 16.1777L51.5562 16.1633L51.7724 16.1489L51.9887 16.1344L52.2121 16.12L52.4355 16.1056L52.659 16.0912L52.8824 16.084L53.1058 16.0768L53.3293 16.0696L53.5527 16.0623L53.7761 16.0551L53.9996 16.0479L54.223 16.0407L54.4465 16.0335H54.6699H54.8933H55.1168H55.3402C55.7438 16.0263 56.1691 16.0335 56.5871 16.0407Z" fill="url(#paint0_linear_136_827)"/>
<mask id="mask0_136_827" style="mask-type:alpha" maskUnits="userSpaceOnUse" x="2" y="16" width="107" height="107">
<path fill-rule="evenodd" clip-rule="evenodd" d="M3.24365 59.0226C3.33014 58.59 3.41663 58.1575 3.51033 57.7249L3.24365 59.0226ZM3.01301 60.3275C3.08508 59.8877 3.16437 59.4551 3.24365 59.0226L3.01301 60.3275ZM14.1992 102.545C14.1199 102.444 14.0406 102.35 13.9614 102.25C13.8028 102.048 13.6442 101.853 13.4857 101.651C13.4208 101.565 13.3559 101.478 13.2838 101.392C12.9523 100.966 12.6279 100.534 12.3108 100.094C12.2604 100.029 12.2171 99.9642 12.1667 99.8993C12.0297 99.7047 11.8928 99.51 11.7558 99.3154C11.6693 99.1856 11.5756 99.063 11.4891 98.9333C11.3666 98.7458 11.2369 98.5656 11.1144 98.3782C11.0207 98.234 10.927 98.097 10.8333 97.9528C10.7107 97.7654 10.5954 97.5851 10.4729 97.3977C10.3864 97.2607 10.2999 97.1165 10.2062 96.9723C10.0909 96.7849 9.96834 96.5903 9.85302 96.3956C9.75932 96.2442 9.67283 96.0928 9.58634 95.9414C9.43498 95.6891 9.29083 95.4368 9.14668 95.1844C9.00973 94.9393 8.86558 94.6942 8.73584 94.4419C8.64214 94.2761 8.55565 94.103 8.46195 93.93C8.36826 93.7498 8.26735 93.5695 8.17365 93.3893C8.08716 93.2235 8.00067 93.0505 7.91418 92.8847C7.82048 92.6972 7.72678 92.5098 7.63308 92.3223C7.5538 92.1565 7.46731 91.9835 7.38802 91.8177C7.29432 91.623 7.20783 91.4356 7.12134 91.2409C7.04206 91.0679 6.96277 90.9021 6.8907 90.7291C6.797 90.52 6.71051 90.3182 6.61681 90.1091C6.55194 89.9505 6.47986 89.7991 6.415 89.6405C6.27084 89.2944 6.12669 88.9412 5.98254 88.5879C5.92488 88.4437 5.87443 88.2996 5.81676 88.1554C5.73027 87.9247 5.63657 87.694 5.55729 87.4633C5.49963 87.2975 5.44197 87.1316 5.3771 86.973C5.29782 86.7568 5.22574 86.5477 5.15367 86.3314C5.096 86.1656 5.03834 85.9926 4.98068 85.8268C4.90861 85.6033 4.83653 85.3798 4.76445 85.1563C4.714 84.9977 4.66355 84.8463 4.6131 84.6877C4.53381 84.4354 4.46174 84.183 4.38966 83.9235C4.34641 83.7865 4.31038 83.6496 4.26713 83.5126C4.15902 83.1305 4.05811 82.7484 3.9572 82.3663C3.93558 82.2726 3.91396 82.1789 3.88513 82.0851C3.80584 81.7823 3.73377 81.4796 3.66169 81.1768C3.62565 81.0326 3.59682 80.8812 3.56079 80.737C3.50312 80.4847 3.44546 80.2323 3.39501 79.98C3.35897 79.8214 3.33014 79.6628 3.2941 79.497C3.24365 79.2447 3.1932 78.9923 3.14995 78.74C3.12112 78.5886 3.09229 78.4372 3.07067 78.2858C3.02022 78.0119 2.97697 77.7307 2.93372 77.4568C2.9121 77.327 2.89048 77.19 2.86886 77.0602C2.81119 76.6565 2.75353 76.2528 2.70308 75.8491C2.69587 75.777 2.68867 75.7049 2.68146 75.6328C2.63821 75.294 2.60217 74.9479 2.56614 74.6091C2.55172 74.4649 2.53731 74.3279 2.52289 74.1837C2.49406 73.9026 2.47244 73.6286 2.45081 73.3475C2.4364 73.1961 2.42919 73.0447 2.41478 72.8933C2.39315 72.6193 2.37874 72.3454 2.36432 72.0642C2.35712 71.9128 2.34991 71.7686 2.3427 71.6172C2.32829 71.3288 2.32108 71.0333 2.30666 70.7377C2.29945 70.6007 2.29945 70.4709 2.29225 70.334C2.28504 69.9158 2.27783 69.4905 2.27783 69.0651C2.27783 68.8344 2.27783 68.6109 2.28504 68.3802C2.28504 68.1496 2.29225 67.9261 2.29945 67.6954C2.30666 67.4647 2.31387 67.2412 2.32108 67.0177C2.32829 66.7942 2.3427 66.5635 2.34991 66.34C2.36432 66.1165 2.37153 65.8858 2.38595 65.6623C2.40036 65.4389 2.41478 65.2154 2.4364 64.9847C2.45081 64.7612 2.47244 64.5377 2.49406 64.3142C2.51568 64.0907 2.53731 63.8672 2.55893 63.6437C2.58055 63.4202 2.60217 63.1968 2.631 62.9733C2.65983 62.7498 2.68146 62.5335 2.71029 62.31C2.73912 62.0865 2.76795 61.8702 2.79678 61.6468C2.82561 61.4233 2.86165 61.207 2.89048 60.9907C2.92652 60.7744 2.95535 60.5509 2.99859 60.3347C3.07067 59.8949 3.14995 59.4623 3.22924 59.0298C3.31573 58.5972 3.40222 58.1647 3.49592 57.7321C3.87071 56.0163 4.32479 54.3293 4.86536 52.6712C7.34478 45.0293 11.5108 38.1516 16.9237 32.4707C17.2192 32.1607 17.5147 31.8579 17.8102 31.5623L55.3186 69.0651L92.8125 106.568C83.2192 116.164 69.9644 122.104 55.3186 122.104C50.5688 122.104 45.9703 121.477 41.5881 120.302C39.8294 119.833 38.0996 119.271 36.413 118.629L36.3842 118.622C34.3733 117.85 32.42 116.964 30.5316 115.962L30.474 115.933C30.1713 115.774 29.8757 115.608 29.5802 115.45L29.5154 115.414C27.9801 114.556 26.4954 113.626 25.0611 112.631L24.989 112.58C24.7223 112.393 24.4628 112.206 24.1961 112.018L24.0808 111.932C23.8214 111.737 23.5547 111.55 23.2952 111.348L23.2592 111.319C22.1708 110.49 21.1113 109.617 20.0878 108.709L19.9437 108.587C19.7274 108.392 19.504 108.19 19.2878 107.995L19.1004 107.822C18.8914 107.628 18.6823 107.426 18.4733 107.231L18.3003 107.065C17.3706 106.164 16.4768 105.227 15.6191 104.254L15.4245 104.03C15.2515 103.836 15.0785 103.634 14.9128 103.439L14.6677 103.144C14.5235 102.934 14.3578 102.74 14.1992 102.545ZM56.5871 16.0407C56.7241 16.0407 56.8538 16.0479 56.9907 16.0551C57.2863 16.0623 57.5746 16.0768 57.8701 16.0912C58.0214 16.0984 58.1656 16.1056 58.3169 16.1128C58.5908 16.1272 58.8719 16.1489 59.1458 16.1633C59.2972 16.1705 59.4485 16.1849 59.5999 16.1993C59.881 16.2209 60.1549 16.2498 60.436 16.2714C60.5801 16.2858 60.7171 16.3002 60.8612 16.3147C61.2072 16.3507 61.5459 16.3868 61.8847 16.43C61.9568 16.4372 62.0289 16.4444 62.1009 16.4516C62.5046 16.5021 62.9082 16.5598 63.3118 16.6247C63.4415 16.6463 63.5713 16.6679 63.701 16.6896C63.9821 16.7328 64.2632 16.7833 64.5443 16.8265C64.6957 16.8554 64.8398 16.8842 64.9912 16.9058C65.2434 16.9491 65.4957 16.9996 65.748 17.05C65.9065 17.0789 66.0651 17.1149 66.2309 17.1509C66.4831 17.2014 66.7354 17.2591 66.9877 17.3168C67.1318 17.3528 67.2832 17.3816 67.4273 17.4177C67.7301 17.4898 68.0256 17.5619 68.3211 17.634C68.4148 17.6556 68.5157 17.6844 68.6166 17.7061C69.0058 17.807 69.3878 17.9079 69.7698 18.0161C69.8923 18.0521 70.0149 18.0882 70.1374 18.1242C70.4041 18.2035 70.6636 18.2756 70.9302 18.3621C71.0888 18.4126 71.2402 18.4558 71.3987 18.5063C71.6222 18.5784 71.8528 18.6505 72.0762 18.7298C72.242 18.7875 72.4078 18.8379 72.5736 18.8956C72.7898 18.9677 73.0132 19.047 73.2295 19.1263C73.388 19.184 73.5538 19.2416 73.7124 19.2993C73.9502 19.3858 74.1881 19.4796 74.4259 19.5661C74.5629 19.6165 74.6998 19.6742 74.844 19.7247C75.1971 19.8616 75.5503 20.0058 75.9035 20.1572C76.0548 20.2221 76.199 20.287 76.3504 20.3519C76.5666 20.4456 76.7828 20.5393 76.9918 20.633C77.1576 20.7051 77.3234 20.7844 77.4892 20.8565C77.6838 20.9502 77.8856 21.0368 78.0802 21.1305C78.246 21.2098 78.4117 21.2891 78.5775 21.3684C78.7721 21.4621 78.9595 21.5558 79.1469 21.6496C79.3127 21.7361 79.4857 21.8226 79.6514 21.9091C79.8316 22.0028 80.0118 22.0965 80.192 22.1975C80.365 22.2912 80.5308 22.3777 80.7038 22.4714C80.9921 22.63 81.2876 22.7958 81.5759 22.9616C81.7777 23.077 81.9723 23.1923 82.1741 23.3077C82.3399 23.4014 82.4984 23.5023 82.6642 23.5961C82.8516 23.7114 83.039 23.8268 83.2264 23.9421C83.3706 24.0286 83.5147 24.1223 83.6589 24.2089C83.8463 24.3242 84.0337 24.4468 84.2139 24.5693C84.358 24.663 84.4949 24.7568 84.6391 24.8505C84.8265 24.973 85.0139 25.0956 85.1941 25.2254C85.3238 25.3119 85.4464 25.4056 85.5761 25.4921C85.7707 25.6291 85.9653 25.7589 86.1599 25.903C86.2248 25.9535 86.2896 25.9968 86.3545 26.0472C86.7798 26.3572 87.205 26.6744 87.623 26.9989C87.724 27.0709 87.8177 27.1502 87.9186 27.2223C88.106 27.3665 88.2934 27.5179 88.4808 27.6693C88.5961 27.763 88.7114 27.8495 88.8195 27.9433C89.0069 28.0947 89.1943 28.2461 89.3745 28.4047L89.6916 28.6714C89.8862 28.8372 90.0736 29.003 90.2682 29.1689C90.3547 29.2409 90.434 29.313 90.5205 29.3923C90.7295 29.5726 90.9313 29.76 91.1331 29.9475L91.1548 29.9691C91.8899 30.6468 92.6107 31.3461 93.3099 32.0598L93.4756 32.2328C93.6774 32.4347 93.872 32.6437 94.0666 32.8528L94.254 33.0475C94.4486 33.2565 94.6433 33.4728 94.8379 33.6891L94.982 33.8549C95.883 34.8714 96.7479 35.9168 97.5695 36.9982L97.6128 37.0486C97.8074 37.3009 97.9948 37.5605 98.1894 37.82L98.2831 37.9498C98.4705 38.2093 98.6579 38.4761 98.8453 38.7356L98.8957 38.8077C99.8976 40.2423 100.827 41.7347 101.685 43.2702L101.714 43.3207C101.88 43.6235 102.045 43.9263 102.204 44.2291L102.226 44.2651C103.062 45.844 103.819 47.4661 104.496 49.1242C104.633 49.4558 104.763 49.7947 104.892 50.1335V50.1407C107.141 56.0163 108.374 62.3965 108.374 69.0651C108.374 73.8233 107.739 78.4372 106.565 82.8277L79.082 55.3386L65.3371 41.6193L41.5593 17.8358L41.7683 17.7782L41.9773 17.7277L42.1863 17.6772L42.3953 17.6268L42.6044 17.5763L42.8134 17.5258L43.0224 17.4754L43.2314 17.4249L43.4404 17.3744L43.6495 17.324L43.8585 17.2807L44.0675 17.2375L44.2765 17.1942L44.4856 17.1509L44.6946 17.1077L44.9036 17.0644L45.1126 17.0212L45.3216 16.9779L45.5307 16.9347L45.7397 16.8986L45.9487 16.8626L46.1577 16.8265L46.3667 16.7905L46.583 16.7544L46.7992 16.7184L47.0154 16.6823L47.2316 16.6463L47.4479 16.6102L47.6641 16.5814L47.8803 16.5526L48.0966 16.5237L48.3128 16.4949L48.529 16.4661L48.7452 16.4372L48.9615 16.4084L49.1777 16.3795L49.3939 16.3579L49.6102 16.3363L49.8264 16.3147L50.0426 16.293L50.2588 16.2714L50.4751 16.2498L50.6913 16.2282L50.9075 16.2065L51.1237 16.1921L51.34 16.1777L51.5562 16.1633L51.7724 16.1489L51.9887 16.1344L52.2121 16.12L52.4355 16.1056L52.659 16.0912L52.8824 16.084L53.1058 16.0768L53.3293 16.0696L53.5527 16.0623L53.7761 16.0551L53.9996 16.0479L54.223 16.0407L54.4465 16.0335H54.6699H54.8933H55.1168H55.3402C55.7438 16.0263 56.1691 16.0335 56.5871 16.0407Z" fill="url(#paint1_linear_136_827)"/>
</mask>
<g mask="url(#mask0_136_827)">
<ellipse cx="91.897" cy="100.57" rx="55.8589" ry="55.8721" fill="#BBA585"/>
</g>
<path fill-rule="evenodd" clip-rule="evenodd" d="M88.7112 64.9991C86.2678 74.1116 81.4603 82.2581 74.9879 88.7321L0 13.7265C6.47243 7.25256 14.617 2.44395 23.7274 0L88.7112 64.9991Z" fill="url(#paint2_linear_136_827)"/>
<path fill-rule="evenodd" clip-rule="evenodd" d="M112.265 90.1162C118.543 90.1162 123.625 95.206 123.625 101.478C123.625 107.757 118.536 112.84 112.265 112.84C105.988 112.84 100.906 107.75 100.906 101.478C100.906 95.206 105.995 90.1162 112.265 90.1162Z" fill="#52BDD1"/>
<defs>
<linearGradient id="paint0_linear_136_827" x1="17.5291" y1="29.2897" x2="92.8852" y2="105.988" gradientUnits="userSpaceOnUse">
<stop stop-color="#BBA585"/>
<stop offset="1" stop-color="#997D65"/>
</linearGradient>
<linearGradient id="paint1_linear_136_827" x1="18.3795" y1="31.721" x2="92.8857" y2="105.988" gradientUnits="userSpaceOnUse">
<stop offset="0.0107346" stop-color="#B49E7F"/>
<stop offset="0.472477" stop-color="#978366"/>
</linearGradient>
<linearGradient id="paint2_linear_136_827" x1="64.5172" y1="88.7321" x2="96.6803" y2="15.9112" gradientUnits="userSpaceOnUse">
<stop stop-color="#0096CB"/>
<stop offset="1" stop-color="#71CFDC"/>
</linearGradient>
</defs>
</svg>
